<svg width="120" height="120" viewBox="0 0 120 120" fill="none" xmlns="http://www.w3.org/2000/svg">
<g clip-path="url(#clip0_1_2)">
<path fill-rule="evenodd" clip-rule="evenodd" d="M93.9996 120H25.9996C22.5833 120.007 19.1993 119.339 16.0418 118.035C12.8842 116.731 10.0153 114.816 7.59959 112.4C5.18391 109.984 3.26903 107.115 1.96482 103.958C0.660618 100.8 -0.00723266 97.4163 -0.000405952 94V26C-0.00723266 22.5837 0.660618 19.1997 1.96482 16.0422C3.26903 12.8846 5.18391 10.0157 7.59959 7.60001C10.0153 5.18432 12.8842 3.26944 16.0418 1.96523C19.1993 0.66103 22.5833 -0.00682068 25.9996 6.03562e-06H93.9996C97.4159 -0.00682068 100.8 0.66103 103.957 1.96523C107.115 3.26944 109.984 5.18432 112.4 7.60001C114.815 10.0157 116.73 12.8846 118.034 16.0422C119.339 19.1997 120.006 22.5837 120 26V94C120.006 97.4163 119.339 100.8 118.034 103.958C116.73 107.115 114.815 109.984 112.4 112.4C109.984 114.816 107.115 116.731 103.957 118.035C100.8 119.339 97.4159 120.007 93.9996 120Z" fill="#498DD6"/>
<path d="M59.949 110C69.8403 110.01 79.5123 107.086 87.7414 101.598C95.9706 96.1103 102.387 88.3049 106.179 79.1694C109.972 70.034 110.969 59.9791 109.045 50.2767C107.122 40.5743 102.364 31.6604 95.3733 24.6627C88.3827 17.6649 79.4736 12.8979 69.7732 10.9645C60.0727 9.0311 50.0168 10.0183 40.8775 13.8012C31.7382 17.5841 23.9263 23.9927 18.43 32.2163C12.9337 40.4399 9.99998 50.1089 10 60.0001C10.0482 73.2373 15.3246 85.9192 24.68 95.2841C34.0354 104.649 46.712 109.938 59.949 110ZM59.949 76.7177C42.9256 76.7177 30.2345 84.6177 26.208 91.3966C20.0948 84.8211 16.0345 76.6036 14.5258 67.753C13.017 58.9025 14.1253 49.8039 17.7147 41.5744C21.3041 33.3448 27.2184 26.3424 34.7314 21.4268C42.2444 16.5112 51.0293 13.8963 60.0076 13.903C68.9858 13.9098 77.7667 16.538 85.2723 21.465C92.7779 26.3919 98.6816 33.4033 102.259 41.6382C105.836 49.8732 106.93 58.9734 105.408 67.8216C103.886 76.6699 99.8132 84.8812 93.6901 91.4475C89.6636 84.6177 77.0234 76.7177 59.949 76.7177ZM59.949 67.9001C69.735 67.9001 77.2273 59.5923 77.2273 48.736C77.2273 38.5423 69.582 29.9797 59.949 29.9797C50.367 29.9797 42.6707 38.5423 42.7217 48.736C42.7217 59.5923 50.2141 67.8492 59.949 67.9001Z" fill="#101010"/>
</g>
<defs>
<clipPath id="clip0_1_2">
<rect width="120" height="120" fill="white"/>
</clipPath>
</defs>
</svg>
